<svg id="Layer_5" enable-background="new 0 0 64 64" height="512" viewBox="0 0 64 64" width="512" xmlns="http://www.w3.org/2000/svg"><g><g><g fill="#e6e9ed"><path d="m44 16v-6-4h18v10c0 1.1-.9 2-2 2h-14c-1.1 0-2-.9-2-2z"/><path d="m44 38v-6-4h18v10c0 1.1-.9 2-2 2h-14c-1.1 0-2-.9-2-2z"/><path d="m44 60v-6-4h18v10c0 1.1-.9 2-2 2h-14c-1.1 0-2-.9-2-2z"/><path d="m34 38v13c0 1.1-.9 2-2 2h-28c-1.1 0-2-.9-2-2v-32h32v7 6z"/></g><path d="m62 48v2h-18v-2c0-1.1.9-2 2-2h14c1.1 0 2 .9 2 2z" fill="#ff826e"/><path d="m62 26v2h-18v-2c0-1.1.9-2 2-2h14c1.1 0 2 .9 2 2z" fill="#ff826e"/><path d="m62 4v2h-18v-2c0-1.1.9-2 2-2h14c1.1 0 2 .9 2 2z" fill="#ff826e"/><path d="m2 19v-6c0-1.1.9-2 2-2h28c1.1 0 2 .9 2 2v6z" fill="#5cd6b3"/><path d="m28 25v2c0 1.1-.9 2-2 2h-16c-1.1 0-2-.9-2-2v-2c0-1.1.9-2 2-2h16c1.1 0 2 .9 2 2z" fill="#fcd770"/><path d="m28 35v2c0 1.1-.9 2-2 2h-16c-1.1 0-2-.9-2-2v-2c0-1.1.9-2 2-2h16c1.1 0 2 .9 2 2z" fill="#fcd770"/><path d="m28 45v2c0 1.1-.9 2-2 2h-16c-1.1 0-2-.9-2-2v-2c0-1.1.9-2 2-2h16c1.1 0 2 .9 2 2z" fill="#fcd770"/><path d="m10 39h16v4h-16z" fill="#5cd6b3"/><path d="m10 29h16v4h-16z" fill="#5cd6b3"/></g><g><path d="m13 14h2v2h-2z"/><path d="m9 14h2v2h-2z"/><path d="m5 14h2v2h-2z"/><path d="m26 22h-16c-1.654 0-3 1.346-3 3v2c0 1.302.839 2.402 2 2.816v2.369c-1.161.413-2 1.513-2 2.815v2c0 1.302.839 2.402 2 2.816v2.369c-1.161.413-2 1.513-2 2.815v2c0 1.654 1.346 3 3 3h16c1.654 0 3-1.346 3-3v-2c0-1.302-.839-2.402-2-2.816v-2.369c1.161-.414 2-1.514 2-2.816v-2c0-1.302-.839-2.402-2-2.816v-2.369c1.161-.414 2-1.514 2-2.816v-2c0-1.652-1.346-2.998-3-2.998zm-15 10v-2h14v2zm0 10v-2h14v2zm16 5c0 .552-.449 1-1 1h-16c-.551 0-1-.448-1-1v-2c0-.552.449-1 1-1h16c.551 0 1 .448 1 1zm0-10c0 .552-.449 1-1 1h-16c-.551 0-1-.448-1-1v-2c0-.552.449-1 1-1h16c.551 0 1 .448 1 1zm0-10c0 .552-.449 1-1 1h-16c-.551 0-1-.448-1-1v-2c0-.552.449-1 1-1h16c.551 0 1 .448 1 1z"/><path d="m46 19h14c1.654 0 3-1.346 3-3v-12c0-1.654-1.346-3-3-3h-14c-1.654 0-3 1.346-3 3v5h-3c-1.654 0-3 1.346-3 3v12c0 .552-.449 1-1 1h-1v-12c0-1.654-1.346-3-3-3h-28c-1.654 0-3 1.346-3 3v38c0 1.654 1.346 3 3 3h28c1.654 0 3-1.346 3-3v-12h1c.551 0 1 .448 1 1v12c0 1.654 1.346 3 3 3h3v5c0 1.654 1.346 3 3 3h14c1.654 0 3-1.346 3-3v-12c0-1.654-1.346-3-3-3h-14c-1.654 0-3 1.346-3 3v5h-3c-.551 0-1-.448-1-1v-12c0-1.654-1.346-3-3-3h-1v-4h8v5c0 1.654 1.346 3 3 3h14c1.654 0 3-1.346 3-3v-12c0-1.654-1.346-3-3-3h-14c-1.654 0-3 1.346-3 3v5h-8v-4h1c1.654 0 3-1.346 3-3v-12c0-.552.449-1 1-1h3v5c0 1.654 1.346 3 3 3zm14 42h-14c-.551 0-1-.448-1-1v-9h16v9c0 .552-.449 1-1 1zm-14-14h14c.551 0 1 .448 1 1v1h-16v-1c0-.552.449-1 1-1zm14-8h-14c-.551 0-1-.448-1-1v-9h16v9c0 .552-.449 1-1 1zm-14-14h14c.551 0 1 .448 1 1v1h-16v-1c0-.552.449-1 1-1zm-42-13h28c.551 0 1 .448 1 1v5h-30v-5c0-.552.449-1 1-1zm28 40h-28c-.551 0-1-.448-1-1v-31h30v31c0 .552-.449 1-1 1zm28-35h-14c-.551 0-1-.448-1-1v-9h16v9c0 .552-.449 1-1 1zm-14-14h14c.551 0 1 .448 1 1v1h-16v-1c0-.552.449-1 1-1z"/><path d="m47 9h12v2h-12z"/><path d="m57 13h2v2h-2z"/><path d="m47 13h8v2h-8z"/><path d="m47 53h12v2h-12z"/><path d="m57 57h2v2h-2z"/><path d="m47 57h8v2h-8z"/><path d="m47 31h12v2h-12z"/><path d="m57 35h2v2h-2z"/><path d="m47 35h8v2h-8z"/></g></g></svg>