<?xml version="1.0" encoding="UTF-8"?>
<svg xmlns="http://www.w3.org/2000/svg" xmlns:xlink="http://www.w3.org/1999/xlink" width="128pt" height="128pt" viewBox="0 0 128 128" version="1.1">
<g id="surface1">
<path style=" stroke:none;fill-rule:nonzero;fill:rgb(90.196078%,91.372549%,92.941176%);fill-opacity:1;" d="M 88 32 L 88 12 L 124 12 L 124 32 C 124 34.199219 122.199219 36 120 36 L 92 36 C 89.800781 36 88 34.199219 88 32 Z M 88 32 "/>
<path style=" stroke:none;fill-rule:nonzero;fill:rgb(90.196078%,91.372549%,92.941176%);fill-opacity:1;" d="M 88 76 L 88 56 L 124 56 L 124 76 C 124 78.199219 122.199219 80 120 80 L 92 80 C 89.800781 80 88 78.199219 88 76 Z M 88 76 "/>
<path style=" stroke:none;fill-rule:nonzero;fill:rgb(90.196078%,91.372549%,92.941176%);fill-opacity:1;" d="M 88 120 L 88 100 L 124 100 L 124 120 C 124 122.199219 122.199219 124 120 124 L 92 124 C 89.800781 124 88 122.199219 88 120 Z M 88 120 "/>
<path style=" stroke:none;fill-rule:nonzero;fill:rgb(90.196078%,91.372549%,92.941176%);fill-opacity:1;" d="M 68 76 L 68 102 C 68 104.199219 66.199219 106 64 106 L 8 106 C 5.800781 106 4 104.199219 4 102 L 4 38 L 68 38 Z M 68 76 "/>
<path style=" stroke:none;fill-rule:nonzero;fill:rgb(100%,50.980392%,43.137255%);fill-opacity:1;" d="M 124 96 L 124 100 L 88 100 L 88 96 C 88 93.800781 89.800781 92 92 92 L 120 92 C 122.199219 92 124 93.800781 124 96 Z M 124 96 "/>
<path style=" stroke:none;fill-rule:nonzero;fill:rgb(100%,50.980392%,43.137255%);fill-opacity:1;" d="M 124 52 L 124 56 L 88 56 L 88 52 C 88 49.800781 89.800781 48 92 48 L 120 48 C 122.199219 48 124 49.800781 124 52 Z M 124 52 "/>
<path style=" stroke:none;fill-rule:nonzero;fill:rgb(100%,50.980392%,43.137255%);fill-opacity:1;" d="M 124 8 L 124 12 L 88 12 L 88 8 C 88 5.800781 89.800781 4 92 4 L 120 4 C 122.199219 4 124 5.800781 124 8 Z M 124 8 "/>
<path style=" stroke:none;fill-rule:nonzero;fill:rgb(36.078431%,83.921569%,70.196078%);fill-opacity:1;" d="M 4 38 L 4 26 C 4 23.800781 5.800781 22 8 22 L 64 22 C 66.199219 22 68 23.800781 68 26 L 68 38 Z M 4 38 "/>
<path style=" stroke:none;fill-rule:nonzero;fill:rgb(98.823529%,84.313725%,43.921569%);fill-opacity:1;" d="M 56 50 L 56 54 C 56 56.199219 54.199219 58 52 58 L 20 58 C 17.800781 58 16 56.199219 16 54 L 16 50 C 16 47.800781 17.800781 46 20 46 L 52 46 C 54.199219 46 56 47.800781 56 50 Z M 56 50 "/>
<path style=" stroke:none;fill-rule:nonzero;fill:rgb(98.823529%,84.313725%,43.921569%);fill-opacity:1;" d="M 56 70 L 56 74 C 56 76.199219 54.199219 78 52 78 L 20 78 C 17.800781 78 16 76.199219 16 74 L 16 70 C 16 67.800781 17.800781 66 20 66 L 52 66 C 54.199219 66 56 67.800781 56 70 Z M 56 70 "/>
<path style=" stroke:none;fill-rule:nonzero;fill:rgb(98.823529%,84.313725%,43.921569%);fill-opacity:1;" d="M 56 90 L 56 94 C 56 96.199219 54.199219 98 52 98 L 20 98 C 17.800781 98 16 96.199219 16 94 L 16 90 C 16 87.800781 17.800781 86 20 86 L 52 86 C 54.199219 86 56 87.800781 56 90 Z M 56 90 "/>
<path style=" stroke:none;fill-rule:nonzero;fill:rgb(36.078431%,83.921569%,70.196078%);fill-opacity:1;" d="M 20 78 L 52 78 L 52 86 L 20 86 Z M 20 78 "/>
<path style=" stroke:none;fill-rule:nonzero;fill:rgb(36.078431%,83.921569%,70.196078%);fill-opacity:1;" d="M 20 58 L 52 58 L 52 66 L 20 66 Z M 20 58 "/>
<path style=" stroke:none;fill-rule:nonzero;fill:rgb(0%,0%,0%);fill-opacity:1;" d="M 26 28 L 30 28 L 30 32 L 26 32 Z M 26 28 "/>
<path style=" stroke:none;fill-rule:nonzero;fill:rgb(0%,0%,0%);fill-opacity:1;" d="M 18 28 L 22 28 L 22 32 L 18 32 Z M 18 28 "/>
<path style=" stroke:none;fill-rule:nonzero;fill:rgb(0%,0%,0%);fill-opacity:1;" d="M 10 28 L 14 28 L 14 32 L 10 32 Z M 10 28 "/>
<path style=" stroke:none;fill-rule:nonzero;fill:rgb(0%,0%,0%);fill-opacity:1;" d="M 52 44 L 20 44 C 16.691406 44 14 46.691406 14 50 L 14 54 C 14 56.605469 15.679688 58.804688 18 59.632812 L 18 64.371094 C 15.679688 65.195312 14 67.394531 14 70 L 14 74 C 14 76.605469 15.679688 78.804688 18 79.632812 L 18 84.371094 C 15.679688 85.195312 14 87.394531 14 90 L 14 94 C 14 97.308594 16.691406 100 20 100 L 52 100 C 55.308594 100 58 97.308594 58 94 L 58 90 C 58 87.394531 56.320312 85.195312 54 84.367188 L 54 79.628906 C 56.320312 78.800781 58 76.601562 58 73.996094 L 58 69.996094 C 58 67.394531 56.320312 65.195312 54 64.367188 L 54 59.628906 C 56.320312 58.800781 58 56.601562 58 53.996094 L 58 49.996094 C 58 46.691406 55.308594 44 52 44 Z M 22 64 L 22 60 L 50 60 L 50 64 Z M 22 84 L 22 80 L 50 80 L 50 84 Z M 54 94 C 54 95.105469 53.101562 96 52 96 L 20 96 C 18.898438 96 18 95.105469 18 94 L 18 90 C 18 88.894531 18.898438 88 20 88 L 52 88 C 53.101562 88 54 88.894531 54 90 Z M 54 74 C 54 75.105469 53.101562 76 52 76 L 20 76 C 18.898438 76 18 75.105469 18 74 L 18 70 C 18 68.894531 18.898438 68 20 68 L 52 68 C 53.101562 68 54 68.894531 54 70 Z M 54 54 C 54 55.105469 53.101562 56 52 56 L 20 56 C 18.898438 56 18 55.105469 18 54 L 18 50 C 18 48.894531 18.898438 48 20 48 L 52 48 C 53.101562 48 54 48.894531 54 50 Z M 54 54 "/>
<path style=" stroke:none;fill-rule:nonzero;fill:rgb(0%,0%,0%);fill-opacity:1;" d="M 92 38 L 120 38 C 123.308594 38 126 35.308594 126 32 L 126 8 C 126 4.691406 123.308594 2 120 2 L 92 2 C 88.691406 2 86 4.691406 86 8 L 86 18 L 80 18 C 76.691406 18 74 20.691406 74 24 L 74 48 C 74 49.105469 73.101562 50 72 50 L 70 50 L 70 26 C 70 22.691406 67.308594 20 64 20 L 8 20 C 4.691406 20 2 22.691406 2 26 L 2 102 C 2 105.308594 4.691406 108 8 108 L 64 108 C 67.308594 108 70 105.308594 70 102 L 70 78 L 72 78 C 73.101562 78 74 78.894531 74 80 L 74 104 C 74 107.308594 76.691406 110 80 110 L 86 110 L 86 120 C 86 123.308594 88.691406 126 92 126 L 120 126 C 123.308594 126 126 123.308594 126 120 L 126 96 C 126 92.691406 123.308594 90 120 90 L 92 90 C 88.691406 90 86 92.691406 86 96 L 86 106 L 80 106 C 78.898438 106 78 105.105469 78 104 L 78 80 C 78 76.691406 75.308594 74 72 74 L 70 74 L 70 66 L 86 66 L 86 76 C 86 79.308594 88.691406 82 92 82 L 120 82 C 123.308594 82 126 79.308594 126 76 L 126 52 C 126 48.691406 123.308594 46 120 46 L 92 46 C 88.691406 46 86 48.691406 86 52 L 86 62 L 70 62 L 70 54 L 72 54 C 75.308594 54 78 51.308594 78 48 L 78 24 C 78 22.894531 78.898438 22 80 22 L 86 22 L 86 32 C 86 35.308594 88.691406 38 92 38 Z M 120 122 L 92 122 C 90.898438 122 90 121.105469 90 120 L 90 102 L 122 102 L 122 120 C 122 121.105469 121.101562 122 120 122 Z M 92 94 L 120 94 C 121.101562 94 122 94.894531 122 96 L 122 98 L 90 98 L 90 96 C 90 94.894531 90.898438 94 92 94 Z M 120 78 L 92 78 C 90.898438 78 90 77.105469 90 76 L 90 58 L 122 58 L 122 76 C 122 77.105469 121.101562 78 120 78 Z M 92 50 L 120 50 C 121.101562 50 122 50.894531 122 52 L 122 54 L 90 54 L 90 52 C 90 50.894531 90.898438 50 92 50 Z M 8 24 L 64 24 C 65.101562 24 66 24.894531 66 26 L 66 36 L 6 36 L 6 26 C 6 24.894531 6.898438 24 8 24 Z M 64 104 L 8 104 C 6.898438 104 6 103.105469 6 102 L 6 40 L 66 40 L 66 102 C 66 103.105469 65.101562 104 64 104 Z M 120 34 L 92 34 C 90.898438 34 90 33.105469 90 32 L 90 14 L 122 14 L 122 32 C 122 33.105469 121.101562 34 120 34 Z M 92 6 L 120 6 C 121.101562 6 122 6.894531 122 8 L 122 10 L 90 10 L 90 8 C 90 6.894531 90.898438 6 92 6 Z M 92 6 "/>
<path style=" stroke:none;fill-rule:nonzero;fill:rgb(0%,0%,0%);fill-opacity:1;" d="M 94 18 L 118 18 L 118 22 L 94 22 Z M 94 18 "/>
<path style=" stroke:none;fill-rule:nonzero;fill:rgb(0%,0%,0%);fill-opacity:1;" d="M 114 26 L 118 26 L 118 30 L 114 30 Z M 114 26 "/>
<path style=" stroke:none;fill-rule:nonzero;fill:rgb(0%,0%,0%);fill-opacity:1;" d="M 94 26 L 110 26 L 110 30 L 94 30 Z M 94 26 "/>
<path style=" stroke:none;fill-rule:nonzero;fill:rgb(0%,0%,0%);fill-opacity:1;" d="M 94 106 L 118 106 L 118 110 L 94 110 Z M 94 106 "/>
<path style=" stroke:none;fill-rule:nonzero;fill:rgb(0%,0%,0%);fill-opacity:1;" d="M 114 114 L 118 114 L 118 118 L 114 118 Z M 114 114 "/>
<path style=" stroke:none;fill-rule:nonzero;fill:rgb(0%,0%,0%);fill-opacity:1;" d="M 94 114 L 110 114 L 110 118 L 94 118 Z M 94 114 "/>
<path style=" stroke:none;fill-rule:nonzero;fill:rgb(0%,0%,0%);fill-opacity:1;" d="M 94 62 L 118 62 L 118 66 L 94 66 Z M 94 62 "/>
<path style=" stroke:none;fill-rule:nonzero;fill:rgb(0%,0%,0%);fill-opacity:1;" d="M 114 70 L 118 70 L 118 74 L 114 74 Z M 114 70 "/>
<path style=" stroke:none;fill-rule:nonzero;fill:rgb(0%,0%,0%);fill-opacity:1;" d="M 94 70 L 110 70 L 110 74 L 94 74 Z M 94 70 "/>
</g>
</svg>
