<?xml version="1.0" encoding="UTF-8"?>
<svg xmlns="http://www.w3.org/2000/svg" xmlns:xlink="http://www.w3.org/1999/xlink" width="100pt" height="100pt" viewBox="0 0 100 100" version="1.1">
<g id="surface1">
<path style=" stroke:none;fill-rule:nonzero;fill:rgb(18.039216%,66.27451%,61.176471%);fill-opacity:1;" d="M 17.03125 6.25 L 85.9375 13.402344 L 76.71875 100 L 7.8125 92.847656 Z M 17.03125 6.25 "/>
<path style=" stroke:none;fill-rule:nonzero;fill:rgb(96.862745%,45.490196%,38.431373%);fill-opacity:1;" d="M 18.65625 7.8125 L 87.5 11.398438 L 82.910156 98.4375 L 14.0625 94.855469 Z M 18.65625 7.8125 "/>
<path style=" stroke:none;fill-rule:nonzero;fill:rgb(97.647059%,85.098039%,48.235294%);fill-opacity:1;" d="M 20.3125 9.375 L 89.0625 9.375 L 89.0625 96.875 L 20.3125 96.875 Z M 20.3125 9.375 "/>
<path style="fill:none;stroke-width:1;stroke-linecap:square;stroke-linejoin:miter;stroke:rgb(0%,0%,0%);stroke-opacity:1;stroke-miterlimit:4;" d="M 46.5 5.4175 L 46.5 4.435 C 46.5 2.4675 45.5 0.5 43.5 0.5 C 41.5 0.5 40.5 2.4675 40.5 4.435 L 40.5 13.2875 C 40.5 16.2375 44.5 16.2375 44.5 13.2875 L 44.5 3.45 M 38.5 3.45 L 38.5 5.4175 " transform="matrix(1.5625,0,0,1.5625,0.00000078125,0)"/>
<path style=" stroke:none;fill-rule:nonzero;fill:rgb(62.352941%,28.235294%,17.647059%);fill-opacity:1;" d="M 67.480469 48.113281 L 66.671875 48.644531 C 65.976562 49.097656 65.375 49.550781 64.875 50 C 64.777344 49.5625 64.535156 48.851562 64.144531 47.875 L 63.738281 46.832031 C 62.816406 44.136719 62.253906 41.863281 59.375 40.632812 C 60.367188 39.730469 61.234375 39.277344 61.980469 39.277344 C 62.980469 39.277344 64.085938 40.640625 65.296875 43.367188 L 65.957031 44.832031 C 69.148438 39.113281 77.898438 29.347656 82.589844 26.222656 C 82.253906 26.984375 83.234375 27.140625 82.589844 27.785156 C 76.417969 33.726562 70.699219 40.089844 67.480469 48.113281 "/>
<path style=" stroke:none;fill-rule:nonzero;fill:rgb(62.352941%,28.235294%,17.647059%);fill-opacity:0.439216;" d="M 26.5625 37.5 L 57.8125 37.5 L 57.8125 45.3125 L 26.5625 45.3125 Z M 26.5625 37.5 "/>
<path style=" stroke:none;fill-rule:nonzero;fill:rgb(62.352941%,28.235294%,17.647059%);fill-opacity:0.439216;" d="M 26.5625 68.75 L 57.8125 68.75 L 57.8125 76.5625 L 26.5625 76.5625 Z M 26.5625 68.75 "/>
</g>
</svg>
