<?xml version="1.0" encoding="UTF-8"?>
<svg xmlns="http://www.w3.org/2000/svg" xmlns:xlink="http://www.w3.org/1999/xlink" width="125pt" height="125pt" viewBox="0 0 125 125" version="1.1">
<g id="surface1">
<path style=" stroke:none;fill-rule:nonzero;fill:rgb(18.039216%,66.27451%,61.176471%);fill-opacity:1;" d="M 21.285156 7.8125 L 107.421875 16.75 L 95.898438 125 L 9.765625 116.058594 Z M 21.285156 7.8125 "/>
<path style=" stroke:none;fill-rule:nonzero;fill:rgb(96.862745%,45.490196%,38.431373%);fill-opacity:1;" d="M 23.320312 9.765625 L 109.375 14.246094 L 103.636719 123.046875 L 17.578125 118.566406 Z M 23.320312 9.765625 "/>
<path style=" stroke:none;fill-rule:nonzero;fill:rgb(97.647059%,85.098039%,48.235294%);fill-opacity:1;" d="M 25.390625 11.71875 L 111.328125 11.71875 L 111.328125 121.09375 L 25.390625 121.09375 Z M 25.390625 11.71875 "/>
<path style="fill:none;stroke-width:1;stroke-linecap:square;stroke-linejoin:miter;stroke:rgb(0%,0%,0%);stroke-opacity:1;stroke-miterlimit:4;" d="M 46.5 5.418 L 46.5 4.434 C 46.5 2.468 45.5 0.5 43.5 0.5 C 41.5 0.5 40.5 2.468 40.5 4.434 L 40.5 13.288 C 40.5 16.238 44.5 16.238 44.5 13.288 L 44.5 3.452 M 38.5 3.452 L 38.5 5.418 " transform="matrix(1.953125,0,0,1.953125,0.000000976562,0)"/>
<path style=" stroke:none;fill-rule:nonzero;fill:rgb(62.352941%,28.235294%,17.647059%);fill-opacity:1;" d="M 84.347656 60.140625 L 83.339844 60.804688 C 82.46875 61.371094 81.722656 61.9375 81.09375 62.503906 C 80.972656 61.953125 80.667969 61.066406 80.179688 59.84375 L 79.675781 58.539062 C 78.519531 55.171875 77.820312 52.328125 74.222656 50.792969 C 75.457031 49.664062 76.542969 49.097656 77.472656 49.097656 C 78.726562 49.097656 80.109375 50.800781 81.621094 54.207031 L 82.445312 56.039062 C 86.433594 48.890625 97.371094 36.6875 103.238281 32.777344 C 102.820312 33.734375 104.042969 33.925781 103.238281 34.730469 C 95.519531 42.15625 88.371094 50.109375 84.347656 60.140625 "/>
<path style=" stroke:none;fill-rule:nonzero;fill:rgb(62.352941%,28.235294%,17.647059%);fill-opacity:0.439216;" d="M 33.203125 46.875 L 72.265625 46.875 L 72.265625 56.640625 L 33.203125 56.640625 Z M 33.203125 46.875 "/>
<path style=" stroke:none;fill-rule:nonzero;fill:rgb(62.352941%,28.235294%,17.647059%);fill-opacity:0.439216;" d="M 33.203125 85.9375 L 72.265625 85.9375 L 72.265625 95.703125 L 33.203125 95.703125 Z M 33.203125 85.9375 "/>
</g>
</svg>
