<?xml version="1.0" encoding="UTF-8"?>
<svg xmlns="http://www.w3.org/2000/svg" xmlns:xlink="http://www.w3.org/1999/xlink" width="128pt" height="128pt" viewBox="0 0 128 128" version="1.1">
<g id="surface1">
<path style=" stroke:none;fill-rule:nonzero;fill:rgb(97.647059%,81.960784%,12.156863%);fill-opacity:1;" d="M 116.511719 89.3125 L 114.714844 84.96875 L 94.039062 35.027344 C 93.847656 34.566406 93.484375 34.203125 93.023438 34.011719 L 38.695312 11.511719 C 38.214844 11.3125 37.675781 11.320312 37.203125 11.539062 C 36.730469 11.75 36.367188 12.152344 36.203125 12.644531 L 32.832031 22.601562 L 0.394531 118.441406 L 0.386719 118.472656 C -0.5 121.089844 0.164062 123.929688 2.117188 125.882812 C 3.09375 126.859375 4.292969 127.515625 5.574219 127.8125 C 6.855469 128.113281 8.222656 128.054688 9.53125 127.613281 L 71.011719 106.816406 L 74.414062 103.300781 L 90.0625 100.371094 L 105.429688 95.175781 L 115.382812 91.804688 C 115.875 91.640625 116.273438 91.277344 116.488281 90.804688 C 116.703125 90.332031 116.710938 89.792969 116.511719 89.3125 Z M 116.511719 89.3125 "/>
<path style=" stroke:none;fill-rule:nonzero;fill:rgb(100%,64.313725%,0.784314%);fill-opacity:1;" d="M 115.382812 91.804688 L 105.429688 95.175781 L 90.0625 100.371094 L 74.414062 103.300781 L 71.011719 106.816406 L 9.53125 127.613281 C 8.222656 128.054688 6.855469 128.113281 5.574219 127.8125 C 4.292969 127.515625 3.09375 126.859375 2.117188 125.882812 C 0.164062 123.929688 -0.5 121.089844 0.386719 118.472656 L 0.394531 118.441406 C 3.039062 120.730469 6.714844 121.46875 10.058594 120.335938 L 114.714844 84.96875 L 116.511719 89.3125 C 116.710938 89.792969 116.703125 90.332031 116.488281 90.804688 C 116.273438 91.277344 115.875 91.640625 115.382812 91.804688 Z M 115.382812 91.804688 "/>
<path style=" stroke:none;fill-rule:nonzero;fill:rgb(99.215686%,92.941176%,64.705882%);fill-opacity:1;" d="M 115.382812 91.804688 L 105.429688 95.175781 C 104.945312 93.121094 104.351562 90.964844 103.621094 88.71875 C 99.839844 77.128906 92.421875 63.179688 78.335938 49.089844 C 61.511719 32.273438 45.550781 25.632812 32.902344 22.667969 L 32.832031 22.601562 L 36.203125 12.644531 C 36.367188 12.152344 36.730469 11.75 37.203125 11.539062 C 37.675781 11.320312 38.214844 11.3125 38.695312 11.511719 L 93.023438 34.011719 C 93.484375 34.203125 93.847656 34.566406 94.039062 35.027344 L 114.714844 84.96875 L 116.511719 89.3125 C 116.710938 89.792969 116.703125 90.332031 116.488281 90.804688 C 116.273438 91.277344 115.875 91.640625 115.382812 91.804688 Z M 115.382812 91.804688 "/>
<path style=" stroke:none;fill-rule:nonzero;fill:rgb(98.431373%,87.45098%,38.823529%);fill-opacity:1;" d="M 115.382812 91.804688 L 105.429688 95.175781 C 104.945312 93.121094 104.351562 90.964844 103.621094 88.71875 L 114.714844 84.96875 L 116.511719 89.3125 C 116.710938 89.792969 116.703125 90.332031 116.488281 90.804688 C 116.273438 91.277344 115.875 91.640625 115.382812 91.804688 Z M 115.382812 91.804688 "/>
<path style=" stroke:none;fill-rule:nonzero;fill:rgb(96.862745%,61.960784%,37.647059%);fill-opacity:1;" d="M 127.839844 87.355469 C 125.050781 74.078125 117.21875 53.734375 95.738281 32.25 C 74.25 10.773438 53.90625 2.945312 40.621094 0.160156 C 36.71875 -0.660156 32.871094 1.742188 31.855469 5.554688 C 31.824219 5.683594 31.792969 5.8125 31.765625 5.945312 C 31.351562 7.902344 31.730469 9.898438 32.824219 11.570312 C 33.109375 12.011719 33.441406 12.417969 33.804688 12.78125 C 34.820312 13.800781 36.109375 14.5 37.550781 14.800781 C 48.847656 17.171875 66.273438 23.957031 85.160156 42.832031 C 104.035156 61.710938 110.824219 79.136719 113.195312 90.429688 C 113.492188 91.851562 114.195312 93.148438 115.222656 94.175781 C 117.015625 95.972656 119.570312 96.734375 122.050781 96.210938 C 122.183594 96.183594 122.316406 96.152344 122.441406 96.117188 C 124.230469 95.644531 125.761719 94.542969 126.78125 92.984375 C 127.875 91.308594 128.25 89.3125 127.839844 87.355469 Z M 127.839844 87.355469 "/>
<path style=" stroke:none;fill-rule:nonzero;fill:rgb(84.313725%,49.019608%,25.490196%);fill-opacity:1;" d="M 127.839844 87.355469 C 125.050781 74.078125 117.21875 53.734375 95.738281 32.25 C 74.25 10.773438 53.90625 2.945312 40.621094 0.160156 C 36.71875 -0.660156 32.871094 1.742188 31.855469 5.554688 C 32.953125 5.261719 34.132812 5.214844 35.320312 5.464844 C 48.601562 8.25 68.945312 16.078125 90.433594 37.554688 C 111.917969 59.039062 119.75 79.378906 122.535156 92.660156 C 122.777344 93.824219 122.746094 95.003906 122.441406 96.117188 C 124.230469 95.644531 125.761719 94.542969 126.777344 92.984375 C 127.875 91.308594 128.25 89.3125 127.839844 87.355469 Z M 127.839844 87.355469 "/>
<path style=" stroke:none;fill-rule:nonzero;fill:rgb(92.941176%,12.54902%,38.039216%);fill-opacity:1;" d="M 59.363281 49.664062 C 59.359375 46.507812 58.132812 43.542969 55.902344 41.316406 C 55.902344 41.316406 55.902344 41.3125 55.902344 41.3125 C 51.296875 36.710938 43.808594 36.710938 39.203125 41.3125 C 36.972656 43.542969 35.746094 46.507812 35.746094 49.664062 C 35.746094 52.816406 36.972656 55.78125 39.203125 58.011719 C 43.808594 62.613281 51.296875 62.613281 55.902344 58.011719 C 58.132812 55.78125 59.359375 52.816406 59.363281 49.664062 Z M 59.363281 49.664062 "/>
<path style=" stroke:none;fill-rule:nonzero;fill:rgb(92.941176%,12.54902%,38.039216%);fill-opacity:1;" d="M 49.546875 78.433594 C 44.941406 73.832031 37.449219 73.832031 32.84375 78.433594 C 30.613281 80.664062 29.386719 83.628906 29.386719 86.78125 C 29.386719 89.9375 30.613281 92.902344 32.84375 95.128906 C 32.84375 95.128906 32.84375 95.132812 32.84375 95.132812 C 37.449219 99.734375 44.941406 99.734375 49.546875 95.132812 C 51.777344 92.902344 53.003906 89.9375 53.003906 86.78125 C 53.003906 83.628906 51.777344 80.664062 49.546875 78.433594 Z M 49.546875 78.433594 "/>
<path style=" stroke:none;fill-rule:nonzero;fill:rgb(92.941176%,12.54902%,38.039216%);fill-opacity:1;" d="M 90.066406 100.375 L 70.996094 106.773438 L 70.175781 105.953125 C 68.773438 104.550781 67.769531 102.863281 67.214844 101.019531 C 66.886719 99.929688 66.714844 98.777344 66.714844 97.605469 C 66.714844 94.453125 67.945312 91.488281 70.175781 89.257812 C 72.476562 86.957031 75.503906 85.804688 78.523438 85.804688 C 81.546875 85.804688 84.574219 86.957031 86.875 89.257812 C 88.09375 90.476562 89.007812 91.90625 89.589844 93.457031 C 90.269531 95.265625 90.496094 97.234375 90.222656 99.222656 Z M 90.066406 100.375 "/>
<path style=" stroke:none;fill-rule:nonzero;fill:rgb(78.039216%,11.764706%,32.941176%);fill-opacity:1;" d="M 90.066406 100.375 L 70.996094 106.773438 L 70.175781 105.953125 C 68.773438 104.550781 67.769531 102.863281 67.214844 101.019531 L 89.589844 93.457031 C 90.269531 95.265625 90.496094 97.234375 90.222656 99.222656 Z M 90.066406 100.375 "/>
<path style=" stroke:none;fill-rule:nonzero;fill:rgb(40.784314%,75.294118%,26.666667%);fill-opacity:1;" d="M 28.25 101.371094 C 28.132812 100.550781 27.484375 99.90625 26.664062 99.789062 C 26.515625 99.765625 25.167969 99.582031 23.449219 99.742188 C 20.984375 99.972656 18.960938 100.816406 17.589844 102.1875 C 16.222656 103.554688 15.378906 105.578125 15.148438 108.042969 C 14.988281 109.761719 15.171875 111.109375 15.191406 111.257812 C 15.25 111.667969 15.441406 112.035156 15.722656 112.3125 C 16 112.59375 16.367188 112.785156 16.777344 112.84375 C 16.925781 112.867188 18.273438 113.050781 19.992188 112.886719 C 22.457031 112.65625 24.484375 111.8125 25.851562 110.445312 C 27.21875 109.078125 28.066406 107.050781 28.296875 104.589844 C 28.457031 102.867188 28.273438 101.519531 28.25 101.371094 Z M 28.25 101.371094 "/>
<path style=" stroke:none;fill-rule:nonzero;fill:rgb(40.784314%,75.294118%,26.666667%);fill-opacity:1;" d="M 71.433594 81.058594 C 71.488281 80.921875 71.976562 79.652344 72.210938 77.941406 C 72.546875 75.488281 72.1875 73.324219 71.167969 71.679688 C 70.148438 70.035156 68.367188 68.75 66.019531 67.964844 C 64.382812 67.414062 63.027344 67.289062 62.878906 67.273438 C 62.054688 67.203125 61.277344 67.683594 60.972656 68.457031 C 60.917969 68.597656 60.433594 69.867188 60.199219 71.578125 C 59.859375 74.027344 60.222656 76.195312 61.242188 77.835938 C 61.527344 78.300781 61.875 78.730469 62.273438 79.132812 C 63.304688 80.164062 64.699219 80.988281 66.386719 81.550781 C 68.023438 82.101562 69.378906 82.230469 69.527344 82.242188 C 70.355469 82.3125 71.128906 81.832031 71.433594 81.058594 Z M 71.433594 81.058594 "/>
<path style=" stroke:none;fill-rule:nonzero;fill:rgb(99.215686%,92.941176%,64.705882%);fill-opacity:1;" d="M 37.277344 67.820312 L 34.414062 63.363281 C 33.855469 62.488281 32.695312 62.238281 31.824219 62.796875 C 30.953125 63.355469 30.699219 64.515625 31.257812 65.386719 L 34.121094 69.847656 C 34.195312 69.960938 34.277344 70.066406 34.371094 70.160156 C 34.984375 70.773438 35.953125 70.898438 36.710938 70.414062 C 37.582031 69.851562 37.835938 68.695312 37.277344 67.820312 Z M 37.277344 67.820312 "/>
<path style=" stroke:none;fill-rule:nonzero;fill:rgb(99.215686%,92.941176%,64.705882%);fill-opacity:1;" d="M 77.285156 62.859375 L 73.261719 59.414062 C 72.472656 58.738281 71.289062 58.828125 70.617188 59.617188 C 69.976562 60.367188 70.027344 61.472656 70.714844 62.160156 C 70.746094 62.195312 70.78125 62.226562 70.820312 62.261719 L 74.84375 65.707031 C 75.628906 66.382812 76.816406 66.289062 77.488281 65.503906 C 78.164062 64.71875 78.074219 63.53125 77.285156 62.859375 Z M 77.285156 62.859375 "/>
<path style=" stroke:none;fill-rule:nonzero;fill:rgb(99.215686%,92.941176%,64.705882%);fill-opacity:1;" d="M 60.648438 98.792969 L 61.152344 93.957031 C 61.257812 92.929688 60.511719 92.007812 59.480469 91.898438 C 58.453125 91.792969 57.53125 92.539062 57.421875 93.570312 L 56.917969 98.402344 C 56.855469 98.988281 57.070312 99.539062 57.457031 99.925781 C 57.75 100.21875 58.144531 100.414062 58.589844 100.460938 C 59.617188 100.570312 60.539062 99.820312 60.648438 98.792969 Z M 60.648438 98.792969 "/>
</g>
</svg>
